<mxfile host="app.diagrams.net" agent="Mozilla/5.0 (Windows NT 10.0; Win64; x64) AppleWebKit/537.36 (KHTML, like Gecko) Chrome/131.0.0.0 Safari/537.36" version="26.0.11">
  <diagram name="Page-1" id="2YBvvXClWsGukQMizWep">
    <mxGraphModel dx="974" dy="1507" grid="1" gridSize="10" guides="1" tooltips="1" connect="1" arrows="1" fold="1" page="1" pageScale="1" pageWidth="850" pageHeight="1100" math="0" shadow="0">
      <root>
        <mxCell id="0" />
        <mxCell id="1" parent="0" />
        <mxCell id="C4BJelepMwRIq9ZmiI2F-7" value="" style="group" vertex="1" connectable="0" parent="1">
          <mxGeometry x="40" y="840" width="760" height="40" as="geometry" />
        </mxCell>
        <mxCell id="C4BJelepMwRIq9ZmiI2F-2" value="Customer" style="rounded=1;whiteSpace=wrap;html=1;" vertex="1" parent="C4BJelepMwRIq9ZmiI2F-7">
          <mxGeometry width="120" height="40" as="geometry" />
        </mxCell>
        <mxCell id="C4BJelepMwRIq9ZmiI2F-3" value="App" style="rounded=1;whiteSpace=wrap;html=1;" vertex="1" parent="C4BJelepMwRIq9ZmiI2F-7">
          <mxGeometry x="160" width="120" height="40" as="geometry" />
        </mxCell>
        <mxCell id="C4BJelepMwRIq9ZmiI2F-4" value="Booking service" style="rounded=1;whiteSpace=wrap;html=1;" vertex="1" parent="C4BJelepMwRIq9ZmiI2F-7">
          <mxGeometry x="320" width="120" height="40" as="geometry" />
        </mxCell>
        <mxCell id="C4BJelepMwRIq9ZmiI2F-5" value="Driver service" style="rounded=1;whiteSpace=wrap;html=1;" vertex="1" parent="C4BJelepMwRIq9ZmiI2F-7">
          <mxGeometry x="480" width="120" height="40" as="geometry" />
        </mxCell>
        <mxCell id="C4BJelepMwRIq9ZmiI2F-6" value="Driver" style="rounded=1;whiteSpace=wrap;html=1;" vertex="1" parent="C4BJelepMwRIq9ZmiI2F-7">
          <mxGeometry x="640" width="120" height="40" as="geometry" />
        </mxCell>
        <mxCell id="C4BJelepMwRIq9ZmiI2F-14" value="" style="endArrow=none;html=1;rounded=0;entryX=0.436;entryY=0.975;entryDx=0;entryDy=0;entryPerimeter=0;exitX=0.5;exitY=0;exitDx=0;exitDy=0;" edge="1" parent="1" source="C4BJelepMwRIq9ZmiI2F-2" target="C4BJelepMwRIq9ZmiI2F-9">
          <mxGeometry width="50" height="50" relative="1" as="geometry">
            <mxPoint x="100" y="640" as="sourcePoint" />
            <mxPoint x="260" y="320" as="targetPoint" />
          </mxGeometry>
        </mxCell>
        <mxCell id="C4BJelepMwRIq9ZmiI2F-15" value="" style="endArrow=none;html=1;rounded=0;entryX=0.5;entryY=1;entryDx=0;entryDy=0;exitX=0.5;exitY=0;exitDx=0;exitDy=0;" edge="1" parent="1" source="C4BJelepMwRIq9ZmiI2F-3" target="C4BJelepMwRIq9ZmiI2F-10">
          <mxGeometry width="50" height="50" relative="1" as="geometry">
            <mxPoint x="268" y="641" as="sourcePoint" />
            <mxPoint x="260" y="90" as="targetPoint" />
          </mxGeometry>
        </mxCell>
        <mxCell id="C4BJelepMwRIq9ZmiI2F-16" value="" style="endArrow=none;html=1;rounded=0;entryX=0.5;entryY=1;entryDx=0;entryDy=0;exitX=0.467;exitY=0;exitDx=0;exitDy=0;exitPerimeter=0;" edge="1" parent="1" source="C4BJelepMwRIq9ZmiI2F-4" target="C4BJelepMwRIq9ZmiI2F-11">
          <mxGeometry width="50" height="50" relative="1" as="geometry">
            <mxPoint x="424" y="640" as="sourcePoint" />
            <mxPoint x="416" y="89" as="targetPoint" />
          </mxGeometry>
        </mxCell>
        <mxCell id="C4BJelepMwRIq9ZmiI2F-17" value="" style="endArrow=none;html=1;rounded=0;exitX=0.5;exitY=0;exitDx=0;exitDy=0;entryX=0.5;entryY=1;entryDx=0;entryDy=0;" edge="1" parent="1" source="C4BJelepMwRIq9ZmiI2F-5" target="C4BJelepMwRIq9ZmiI2F-12">
          <mxGeometry width="50" height="50" relative="1" as="geometry">
            <mxPoint x="580" y="760" as="sourcePoint" />
            <mxPoint x="580" y="-120" as="targetPoint" />
          </mxGeometry>
        </mxCell>
        <mxCell id="C4BJelepMwRIq9ZmiI2F-18" value="" style="endArrow=none;html=1;rounded=0;entryX=0.5;entryY=1;entryDx=0;entryDy=0;" edge="1" parent="1" target="C4BJelepMwRIq9ZmiI2F-13">
          <mxGeometry width="50" height="50" relative="1" as="geometry">
            <mxPoint x="740" y="840" as="sourcePoint" />
            <mxPoint x="740" y="90" as="targetPoint" />
          </mxGeometry>
        </mxCell>
        <mxCell id="C4BJelepMwRIq9ZmiI2F-20" value="" style="endArrow=classic;html=1;rounded=0;" edge="1" parent="1">
          <mxGeometry width="50" height="50" relative="1" as="geometry">
            <mxPoint x="105" y="120" as="sourcePoint" />
            <mxPoint x="255" y="120" as="targetPoint" />
          </mxGeometry>
        </mxCell>
        <mxCell id="C4BJelepMwRIq9ZmiI2F-21" value="" style="endArrow=classic;html=1;rounded=0;" edge="1" parent="1">
          <mxGeometry width="50" height="50" relative="1" as="geometry">
            <mxPoint x="420" y="180" as="sourcePoint" />
            <mxPoint x="580" y="180" as="targetPoint" />
          </mxGeometry>
        </mxCell>
        <mxCell id="C4BJelepMwRIq9ZmiI2F-22" value="" style="endArrow=classic;html=1;rounded=0;" edge="1" parent="1">
          <mxGeometry width="50" height="50" relative="1" as="geometry">
            <mxPoint x="580" y="200" as="sourcePoint" />
            <mxPoint x="740" y="200" as="targetPoint" />
          </mxGeometry>
        </mxCell>
        <mxCell id="C4BJelepMwRIq9ZmiI2F-23" value="" style="endArrow=classic;html=1;rounded=0;" edge="1" parent="1">
          <mxGeometry width="50" height="50" relative="1" as="geometry">
            <mxPoint x="740" y="240" as="sourcePoint" />
            <mxPoint x="580" y="240" as="targetPoint" />
          </mxGeometry>
        </mxCell>
        <mxCell id="C4BJelepMwRIq9ZmiI2F-24" value="" style="endArrow=classic;html=1;rounded=0;" edge="1" parent="1">
          <mxGeometry width="50" height="50" relative="1" as="geometry">
            <mxPoint x="580" y="280" as="sourcePoint" />
            <mxPoint x="420" y="280" as="targetPoint" />
          </mxGeometry>
        </mxCell>
        <mxCell id="C4BJelepMwRIq9ZmiI2F-25" value="" style="endArrow=classic;html=1;rounded=0;" edge="1" parent="1">
          <mxGeometry width="50" height="50" relative="1" as="geometry">
            <mxPoint x="410" y="320" as="sourcePoint" />
            <mxPoint x="260" y="320" as="targetPoint" />
          </mxGeometry>
        </mxCell>
        <mxCell id="C4BJelepMwRIq9ZmiI2F-26" value="" style="endArrow=classic;html=1;rounded=0;" edge="1" parent="1">
          <mxGeometry width="50" height="50" relative="1" as="geometry">
            <mxPoint x="260" y="360" as="sourcePoint" />
            <mxPoint x="100" y="360" as="targetPoint" />
          </mxGeometry>
        </mxCell>
        <mxCell id="C4BJelepMwRIq9ZmiI2F-27" value="" style="endArrow=classic;html=1;rounded=0;" edge="1" parent="1">
          <mxGeometry width="50" height="50" relative="1" as="geometry">
            <mxPoint x="100" y="400" as="sourcePoint" />
            <mxPoint x="260" y="400" as="targetPoint" />
          </mxGeometry>
        </mxCell>
        <mxCell id="C4BJelepMwRIq9ZmiI2F-28" value="" style="endArrow=classic;html=1;rounded=0;" edge="1" parent="1">
          <mxGeometry width="50" height="50" relative="1" as="geometry">
            <mxPoint x="260" y="440" as="sourcePoint" />
            <mxPoint x="410" y="440" as="targetPoint" />
          </mxGeometry>
        </mxCell>
        <mxCell id="C4BJelepMwRIq9ZmiI2F-29" value="" style="endArrow=classic;html=1;rounded=0;" edge="1" parent="1">
          <mxGeometry width="50" height="50" relative="1" as="geometry">
            <mxPoint x="410" y="480" as="sourcePoint" />
            <mxPoint x="260" y="480" as="targetPoint" />
          </mxGeometry>
        </mxCell>
        <mxCell id="C4BJelepMwRIq9ZmiI2F-30" value="" style="endArrow=classic;html=1;rounded=0;" edge="1" parent="1">
          <mxGeometry width="50" height="50" relative="1" as="geometry">
            <mxPoint x="250" y="520" as="sourcePoint" />
            <mxPoint x="100" y="520" as="targetPoint" />
          </mxGeometry>
        </mxCell>
        <mxCell id="C4BJelepMwRIq9ZmiI2F-31" value="" style="endArrow=classic;html=1;rounded=0;" edge="1" parent="1">
          <mxGeometry width="50" height="50" relative="1" as="geometry">
            <mxPoint x="740" y="560" as="sourcePoint" />
            <mxPoint x="260" y="560" as="targetPoint" />
          </mxGeometry>
        </mxCell>
        <mxCell id="C4BJelepMwRIq9ZmiI2F-32" value="" style="endArrow=classic;html=1;rounded=0;" edge="1" parent="1">
          <mxGeometry width="50" height="50" relative="1" as="geometry">
            <mxPoint x="260" y="600" as="sourcePoint" />
            <mxPoint x="910" y="600" as="targetPoint" />
          </mxGeometry>
        </mxCell>
        <mxCell id="C4BJelepMwRIq9ZmiI2F-33" value="" style="endArrow=classic;html=1;rounded=0;" edge="1" parent="1">
          <mxGeometry width="50" height="50" relative="1" as="geometry">
            <mxPoint x="910" y="640" as="sourcePoint" />
            <mxPoint x="100" y="640" as="targetPoint" />
          </mxGeometry>
        </mxCell>
        <mxCell id="C4BJelepMwRIq9ZmiI2F-41" value="Payment service" style="rounded=1;whiteSpace=wrap;html=1;" vertex="1" parent="1">
          <mxGeometry x="840" y="840" width="120" height="40" as="geometry" />
        </mxCell>
        <mxCell id="C4BJelepMwRIq9ZmiI2F-42" value="" style="endArrow=none;html=1;rounded=0;entryX=0.5;entryY=1;entryDx=0;entryDy=0;exitX=0.603;exitY=-0.045;exitDx=0;exitDy=0;exitPerimeter=0;" edge="1" parent="1" source="C4BJelepMwRIq9ZmiI2F-41" target="C4BJelepMwRIq9ZmiI2F-34">
          <mxGeometry width="50" height="50" relative="1" as="geometry">
            <mxPoint x="910" y="720" as="sourcePoint" />
            <mxPoint x="640" y="410" as="targetPoint" />
          </mxGeometry>
        </mxCell>
        <mxCell id="C4BJelepMwRIq9ZmiI2F-43" value="" style="endArrow=classic;html=1;rounded=0;" edge="1" parent="1">
          <mxGeometry width="50" height="50" relative="1" as="geometry">
            <mxPoint x="100" y="680" as="sourcePoint" />
            <mxPoint x="910" y="680" as="targetPoint" />
          </mxGeometry>
        </mxCell>
        <mxCell id="C4BJelepMwRIq9ZmiI2F-45" value="" style="endArrow=classic;html=1;rounded=0;" edge="1" parent="1">
          <mxGeometry width="50" height="50" relative="1" as="geometry">
            <mxPoint x="910" y="720" as="sourcePoint" />
            <mxPoint x="740" y="720" as="targetPoint" />
          </mxGeometry>
        </mxCell>
        <mxCell id="C4BJelepMwRIq9ZmiI2F-46" value="" style="endArrow=classic;html=1;rounded=0;" edge="1" parent="1">
          <mxGeometry width="50" height="50" relative="1" as="geometry">
            <mxPoint x="260" y="760" as="sourcePoint" />
            <mxPoint x="100" y="760" as="targetPoint" />
          </mxGeometry>
        </mxCell>
        <mxCell id="C4BJelepMwRIq9ZmiI2F-47" value="" style="endArrow=classic;html=1;rounded=0;" edge="1" parent="1">
          <mxGeometry width="50" height="50" relative="1" as="geometry">
            <mxPoint x="100" y="800" as="sourcePoint" />
            <mxPoint x="260" y="800" as="targetPoint" />
          </mxGeometry>
        </mxCell>
        <mxCell id="C4BJelepMwRIq9ZmiI2F-48" value="&lt;font style=&quot;font-size: 14px;&quot;&gt;submit revirw&lt;/font&gt;" style="text;html=1;align=center;verticalAlign=middle;resizable=0;points=[];autosize=1;strokeColor=none;fillColor=none;" vertex="1" parent="1">
          <mxGeometry x="120" y="770" width="110" height="30" as="geometry" />
        </mxCell>
        <mxCell id="C4BJelepMwRIq9ZmiI2F-50" value="&lt;font style=&quot;font-size: 14px;&quot;&gt;request review&lt;/font&gt;" style="text;html=1;align=center;verticalAlign=middle;resizable=0;points=[];autosize=1;strokeColor=none;fillColor=none;" vertex="1" parent="1">
          <mxGeometry x="120" y="730" width="110" height="30" as="geometry" />
        </mxCell>
        <mxCell id="C4BJelepMwRIq9ZmiI2F-51" value="&lt;font style=&quot;font-size: 14px;&quot;&gt;update earnings&lt;/font&gt;" style="text;html=1;align=center;verticalAlign=middle;resizable=0;points=[];autosize=1;strokeColor=none;fillColor=none;" vertex="1" parent="1">
          <mxGeometry x="770" y="690" width="120" height="30" as="geometry" />
        </mxCell>
        <mxCell id="C4BJelepMwRIq9ZmiI2F-53" value="&lt;font style=&quot;font-size: 14px;&quot;&gt;confirm payment&lt;/font&gt;" style="text;html=1;align=center;verticalAlign=middle;resizable=0;points=[];autosize=1;strokeColor=none;fillColor=none;" vertex="1" parent="1">
          <mxGeometry x="440" y="650" width="130" height="30" as="geometry" />
        </mxCell>
        <mxCell id="C4BJelepMwRIq9ZmiI2F-54" value="&lt;font style=&quot;font-size: 14px;&quot;&gt;request payment&lt;/font&gt;" style="text;html=1;align=center;verticalAlign=middle;resizable=0;points=[];autosize=1;strokeColor=none;fillColor=none;" vertex="1" parent="1">
          <mxGeometry x="425" y="610" width="130" height="30" as="geometry" />
        </mxCell>
        <mxCell id="C4BJelepMwRIq9ZmiI2F-55" value="&lt;font style=&quot;font-size: 14px;&quot;&gt;process payment&lt;/font&gt;" style="text;html=1;align=center;verticalAlign=middle;resizable=0;points=[];autosize=1;strokeColor=none;fillColor=none;" vertex="1" parent="1">
          <mxGeometry x="510" y="570" width="130" height="30" as="geometry" />
        </mxCell>
        <mxCell id="C4BJelepMwRIq9ZmiI2F-57" value="&lt;font style=&quot;font-size: 14px;&quot;&gt;complete ride&lt;/font&gt;" style="text;html=1;align=center;verticalAlign=middle;resizable=0;points=[];autosize=1;strokeColor=none;fillColor=none;" vertex="1" parent="1">
          <mxGeometry x="445" y="520" width="110" height="30" as="geometry" />
        </mxCell>
        <mxCell id="C4BJelepMwRIq9ZmiI2F-58" value="display proress" style="text;html=1;align=center;verticalAlign=middle;resizable=0;points=[];autosize=1;strokeColor=none;fillColor=none;" vertex="1" parent="1">
          <mxGeometry x="125" y="480" width="100" height="30" as="geometry" />
        </mxCell>
        <mxCell id="C4BJelepMwRIq9ZmiI2F-59" value="send location update" style="text;html=1;align=center;verticalAlign=middle;resizable=0;points=[];autosize=1;strokeColor=none;fillColor=none;" vertex="1" parent="1">
          <mxGeometry x="270" y="450" width="130" height="30" as="geometry" />
        </mxCell>
        <mxCell id="C4BJelepMwRIq9ZmiI2F-60" value="get real time update" style="text;html=1;align=center;verticalAlign=middle;resizable=0;points=[];autosize=1;strokeColor=none;fillColor=none;" vertex="1" parent="1">
          <mxGeometry x="270" y="410" width="130" height="30" as="geometry" />
        </mxCell>
        <mxCell id="C4BJelepMwRIq9ZmiI2F-61" value="track ride" style="text;html=1;align=center;verticalAlign=middle;resizable=0;points=[];autosize=1;strokeColor=none;fillColor=none;" vertex="1" parent="1">
          <mxGeometry x="140" y="370" width="70" height="30" as="geometry" />
        </mxCell>
        <mxCell id="C4BJelepMwRIq9ZmiI2F-62" value="show driver details" style="text;html=1;align=center;verticalAlign=middle;resizable=0;points=[];autosize=1;strokeColor=none;fillColor=none;" vertex="1" parent="1">
          <mxGeometry x="125" y="330" width="120" height="30" as="geometry" />
        </mxCell>
        <mxCell id="C4BJelepMwRIq9ZmiI2F-63" value="update booking status" style="text;html=1;align=center;verticalAlign=middle;resizable=0;points=[];autosize=1;strokeColor=none;fillColor=none;" vertex="1" parent="1">
          <mxGeometry x="265" y="290" width="140" height="30" as="geometry" />
        </mxCell>
        <mxCell id="C4BJelepMwRIq9ZmiI2F-64" value="confirm driver" style="text;html=1;align=center;verticalAlign=middle;resizable=0;points=[];autosize=1;strokeColor=none;fillColor=none;" vertex="1" parent="1">
          <mxGeometry x="445" y="250" width="100" height="30" as="geometry" />
        </mxCell>
        <mxCell id="C4BJelepMwRIq9ZmiI2F-65" value="Accept ride" style="text;html=1;align=center;verticalAlign=middle;resizable=0;points=[];autosize=1;strokeColor=none;fillColor=none;" vertex="1" parent="1">
          <mxGeometry x="620" y="210" width="80" height="30" as="geometry" />
        </mxCell>
        <mxCell id="C4BJelepMwRIq9ZmiI2F-66" value="Send ride request" style="text;html=1;align=center;verticalAlign=middle;resizable=0;points=[];autosize=1;strokeColor=none;fillColor=none;" vertex="1" parent="1">
          <mxGeometry x="600" y="170" width="120" height="30" as="geometry" />
        </mxCell>
        <mxCell id="C4BJelepMwRIq9ZmiI2F-69" value="request ride" style="text;html=1;align=center;verticalAlign=middle;resizable=0;points=[];autosize=1;strokeColor=none;fillColor=none;" vertex="1" parent="1">
          <mxGeometry x="135" y="80" width="90" height="30" as="geometry" />
        </mxCell>
        <mxCell id="C4BJelepMwRIq9ZmiI2F-70" value="find available drivers" style="text;html=1;align=center;verticalAlign=middle;resizable=0;points=[];autosize=1;strokeColor=none;fillColor=none;" vertex="1" parent="1">
          <mxGeometry x="435" y="150" width="130" height="30" as="geometry" />
        </mxCell>
        <mxCell id="C4BJelepMwRIq9ZmiI2F-71" value="" style="group" vertex="1" connectable="0" parent="1">
          <mxGeometry x="40" y="-170" width="920" height="40" as="geometry" />
        </mxCell>
        <mxCell id="C4BJelepMwRIq9ZmiI2F-8" value="" style="group" vertex="1" connectable="0" parent="C4BJelepMwRIq9ZmiI2F-71">
          <mxGeometry width="760" height="40" as="geometry" />
        </mxCell>
        <mxCell id="C4BJelepMwRIq9ZmiI2F-9" value="Customer" style="rounded=1;whiteSpace=wrap;html=1;" vertex="1" parent="C4BJelepMwRIq9ZmiI2F-8">
          <mxGeometry width="120" height="40" as="geometry" />
        </mxCell>
        <mxCell id="C4BJelepMwRIq9ZmiI2F-10" value="App" style="rounded=1;whiteSpace=wrap;html=1;" vertex="1" parent="C4BJelepMwRIq9ZmiI2F-8">
          <mxGeometry x="160" width="120" height="40" as="geometry" />
        </mxCell>
        <mxCell id="C4BJelepMwRIq9ZmiI2F-11" value="Booking service" style="rounded=1;whiteSpace=wrap;html=1;" vertex="1" parent="C4BJelepMwRIq9ZmiI2F-8">
          <mxGeometry x="320" width="120" height="40" as="geometry" />
        </mxCell>
        <mxCell id="C4BJelepMwRIq9ZmiI2F-12" value="Driver service" style="rounded=1;whiteSpace=wrap;html=1;" vertex="1" parent="C4BJelepMwRIq9ZmiI2F-8">
          <mxGeometry x="480" width="120" height="40" as="geometry" />
        </mxCell>
        <mxCell id="C4BJelepMwRIq9ZmiI2F-13" value="Driver" style="rounded=1;whiteSpace=wrap;html=1;" vertex="1" parent="C4BJelepMwRIq9ZmiI2F-8">
          <mxGeometry x="640" width="120" height="40" as="geometry" />
        </mxCell>
        <mxCell id="C4BJelepMwRIq9ZmiI2F-34" value="Payment service" style="rounded=1;whiteSpace=wrap;html=1;" vertex="1" parent="C4BJelepMwRIq9ZmiI2F-71">
          <mxGeometry x="800" width="120" height="40" as="geometry" />
        </mxCell>
        <mxCell id="C4BJelepMwRIq9ZmiI2F-72" value="" style="endArrow=classic;html=1;rounded=0;" edge="1" parent="1">
          <mxGeometry width="50" height="50" relative="1" as="geometry">
            <mxPoint x="95" y="-80" as="sourcePoint" />
            <mxPoint x="255" y="-80" as="targetPoint" />
          </mxGeometry>
        </mxCell>
        <mxCell id="C4BJelepMwRIq9ZmiI2F-73" value="" style="endArrow=classic;html=1;rounded=0;" edge="1" parent="1">
          <mxGeometry width="50" height="50" relative="1" as="geometry">
            <mxPoint x="255" y="-10" as="sourcePoint" />
            <mxPoint x="415" y="-10" as="targetPoint" />
          </mxGeometry>
        </mxCell>
        <mxCell id="C4BJelepMwRIq9ZmiI2F-74" value="" style="endArrow=classic;html=1;rounded=0;" edge="1" parent="1">
          <mxGeometry width="50" height="50" relative="1" as="geometry">
            <mxPoint x="415" y="20" as="sourcePoint" />
            <mxPoint x="255" y="20" as="targetPoint" />
          </mxGeometry>
        </mxCell>
        <mxCell id="C4BJelepMwRIq9ZmiI2F-75" value="" style="endArrow=classic;html=1;rounded=0;" edge="1" parent="1">
          <mxGeometry width="50" height="50" relative="1" as="geometry">
            <mxPoint x="255" y="40" as="sourcePoint" />
            <mxPoint x="95" y="40" as="targetPoint" />
          </mxGeometry>
        </mxCell>
        <mxCell id="C4BJelepMwRIq9ZmiI2F-76" value="" style="endArrow=classic;html=1;rounded=0;" edge="1" parent="1">
          <mxGeometry width="50" height="50" relative="1" as="geometry">
            <mxPoint x="265" y="140" as="sourcePoint" />
            <mxPoint x="415" y="140" as="targetPoint" />
          </mxGeometry>
        </mxCell>
        <mxCell id="C4BJelepMwRIq9ZmiI2F-77" value="Enter Credentials" style="text;html=1;align=center;verticalAlign=middle;resizable=0;points=[];autosize=1;strokeColor=none;fillColor=none;" vertex="1" parent="1">
          <mxGeometry x="120" y="-110" width="120" height="30" as="geometry" />
        </mxCell>
        <mxCell id="C4BJelepMwRIq9ZmiI2F-78" value="validate inputs" style="text;html=1;align=center;verticalAlign=middle;resizable=0;points=[];autosize=1;strokeColor=none;fillColor=none;" vertex="1" parent="1">
          <mxGeometry x="270" y="-90" width="100" height="30" as="geometry" />
        </mxCell>
        <mxCell id="C4BJelepMwRIq9ZmiI2F-79" value="" style="endArrow=classic;html=1;rounded=0;edgeStyle=orthogonalEdgeStyle;curved=1;" edge="1" parent="1">
          <mxGeometry width="50" height="50" relative="1" as="geometry">
            <mxPoint x="265" y="-60" as="sourcePoint" />
            <mxPoint x="260" y="-40" as="targetPoint" />
            <Array as="points">
              <mxPoint x="340" y="-59" />
              <mxPoint x="340" y="-40" />
            </Array>
          </mxGeometry>
        </mxCell>
        <mxCell id="C4BJelepMwRIq9ZmiI2F-81" value="login request" style="text;html=1;align=center;verticalAlign=middle;resizable=0;points=[];autosize=1;strokeColor=none;fillColor=none;" vertex="1" parent="1">
          <mxGeometry x="290" y="-30" width="90" height="30" as="geometry" />
        </mxCell>
        <mxCell id="C4BJelepMwRIq9ZmiI2F-82" value="Auth token" style="text;html=1;align=center;verticalAlign=middle;resizable=0;points=[];autosize=1;strokeColor=none;fillColor=none;" vertex="1" parent="1">
          <mxGeometry x="295" width="80" height="30" as="geometry" />
        </mxCell>
        <mxCell id="C4BJelepMwRIq9ZmiI2F-83" value="Login success" style="text;html=1;align=center;verticalAlign=middle;resizable=0;points=[];autosize=1;strokeColor=none;fillColor=none;" vertex="1" parent="1">
          <mxGeometry x="130" y="10" width="100" height="30" as="geometry" />
        </mxCell>
      </root>
    </mxGraphModel>
  </diagram>
</mxfile>
